<svg width="137" height="27" fill="none" xmlns="http://www.w3.org/2000/svg"><g opacity=".4" clip-path="url(#a)"><path d="M36.105 2.33c.03-.186.027-.215.038-.236C37.217.02 37.217.02 39.637.02h77.636c-.451.76-.794 1.434-1.241 2.035-.134.182-.558.234-.848.234-5.054.014-10.107.009-15.161.009-7.38 0-14.757.008-22.135-.016-.63-.001-.95.186-1.251.713-4.365 7.672-8.767 15.324-13.118 23.003-.42.741-.858 1.04-1.74.985-1.287-.083-2.583-.022-4.052-.022L71.745 2.326c-11.953.003-23.767.003-35.64.003ZM127.225.022l-7.717 12.515c1.345 0 2.521.028 3.696-.026.206-.01.444-.336.585-.563 2.291-3.704 4.581-7.41 6.834-11.134.352-.583.72-.844 1.452-.812 1.482.065 2.97.02 4.616.02-.211.362-.366.641-.532.914-5.166 8.49-10.336 16.98-15.491 25.477-.25.412-.522.573-1.018.564-1.54-.03-3.079-.011-4.802-.011l7.303-12.29c-1.355 0-2.529-.028-3.699.027-.209.01-.457.324-.595.55-2.154 3.57-4.318 7.134-6.415 10.734-.441.759-.925 1.054-1.827 1-1.362-.08-2.733-.02-4.248-.02.701-1.168 1.325-2.22 1.958-3.265 4.641-7.673 9.288-15.343 13.909-23.026.3-.498.612-.68 1.201-.665 1.534.037 3.074.01 4.79.01ZM32.288.037c-.487.763-.86 1.422-1.32 2.02-.132.172-.512.232-.778.233-2.783.016-5.568.072-8.35-.015-1.471-.046-2.36.541-3.07 1.708-2.622 4.3-5.295 8.568-7.938 12.856-1.28 2.076-2.536 4.165-3.798 6.251-.122.201-.249.409-.317.629-.206.655.094 1.09.806 1.114.972.031 1.947.03 2.918-.006.223-.008.53-.163.643-.34 1.91-2.985 3.796-5.982 5.684-8.98.022-.035.003-.097.003-.216h-2.5c.41-.727.732-1.332 1.098-1.911.075-.119.323-.194.49-.194 2.54-.004 5.079.007 7.62.016.045 0 .09.047.215.115-.535.887-1.066 1.774-1.603 2.659-2.108 3.474-4.227 6.944-6.318 10.43-.264.441-.558.597-1.085.594-3.919-.022-7.838-.011-11.755-.011-1.64 0-2.553-1.105-2.144-2.67.142-.545.402-1.077.695-1.566C5.395 16.232 9.337 9.73 13.238 3.205 14.422 1.225 16.223.13 18.502.072c4.535-.117 9.075-.035 13.786-.035Z" fill="#000"/><path d="M21.154 26.986c.549-.94 1.016-1.749 1.493-2.553 3.57-6.015 7.148-12.025 10.704-18.049.409-.691.988-1.026 1.764-1.031 3.134-.017 6.268-.047 9.4.001 2.038.032 2.79 1.245 1.855 2.97-.95 1.747-1.981 3.452-3.011 5.156-.5.827-1.406 1.087-2.297 1.326-.923.246-.936.285-.456 1.05.566.902.385 1.794-.104 2.657-1.07 1.89-2.188 3.758-3.22 5.668-.455.844-.749 1.769-1.175 2.802-1.266 0-2.803.026-4.338-.011-.752-.019-.702-.662-.649-1.111.054-.446.283-.89.508-1.3 1.483-2.678 2.986-5.346 4.48-8.019.484-.864.244-1.204-.752-1.307-1.248-.13-2.02.21-2.675 1.36-1.877 3.3-3.94 6.502-5.903 9.756-.276.457-.564.663-1.134.647-1.426-.039-2.856-.012-4.49-.012Zm13.744-13.81c.67 0 1.178-.054 1.67.01 1.162.15 1.907-.379 2.43-1.295.676-1.179 1.35-2.358 1.991-3.557.355-.663.135-1.02-.624-1.143-1.553-.251-1.913-.085-2.698 1.248-.08.136-.164.268-.243.402-.811 1.394-1.622 2.787-2.526 4.335ZM76.506 20.755c-.61 1.051-1.142 1.945-1.648 2.853-.44.787-.216 1.125.699 1.234 1 .12 1.651-.1 2.169-1.08 1.391-2.634 2.939-5.193 4.423-7.783.114-.2.208-.409.386-.763-.457 0-.791.008-1.126-.001-1.293-.033-2.6.026-3.876-.135-1.26-.159-1.744-1.062-1.378-2.234.108-.345.25-.688.438-.997a448.715 448.715 0 0 1 3.165-5.164c.556-.892 1.406-1.346 2.484-1.35 2.728-.013 5.456-.016 8.186-.002 1.337.006 2.177.566 2.282 1.527.038.346-.004.752-.165 1.055-.464.875-.848 1.889-1.578 2.496-.46.38-1.488.142-2.26.154-.884.016-1.768.003-2.814.003.469-.773.882-1.43 1.268-2.103.484-.84.227-1.23-.76-1.324-.951-.092-1.592.123-2.048 1.045-.705 1.426-1.59 2.77-2.394 4.15-.126.219-.227.45-.404.802h3.734c2.69.002 3.509 1.275 2.2 3.512a659.012 659.012 0 0 1-5.415 9.036c-.496.818-1.294 1.255-2.28 1.26-2.782.021-5.566.048-8.347 0-2.108-.035-2.849-1.283-1.882-3.084a41.646 41.646 0 0 1 1.61-2.699c.12-.188.404-.39.619-.394 1.505-.03 3.015-.014 4.712-.014ZM104.768 10.58c.476-.83.9-1.544 1.3-2.27.336-.608.15-1.007-.567-1.094a8.682 8.682 0 0 0-1.778-.018c-.209.02-.462.242-.581.437a5007.667 5007.667 0 0 0-9.758 16.075c-.44.727-.201 1.084.7 1.13 2.075.108 2.069.105 3.14-1.637.492-.804.835-1.895 1.574-2.299.74-.405 1.89-.12 2.862-.132.59-.006 1.181-.002 1.935-.002-.393.659-.717 1.21-1.046 1.759-.583.965-1.18 1.923-1.749 2.895-.597 1.019-1.476 1.545-2.703 1.542-2.62-.007-5.244.004-7.865-.01-.399-.001-.81-.06-1.197-.16-1.124-.29-1.674-1.099-1.205-2.122.66-1.44 1.489-2.816 2.316-4.178 2.78-4.573 5.595-9.124 8.386-13.69.59-.963 1.476-1.444 2.602-1.456 2.54-.028 5.084-.064 7.622.026.691.025 1.465.368 2.008.791.302.234.412 1.013.253 1.415-.378.96-.958 1.848-1.484 2.75-.073.124-.297.235-.454.236-1.395.02-2.79.013-4.311.013ZM60.591 13.126c-.45.695-.778 1.285-1.197 1.81-.143.177-.508.263-.772.268-1.351.026-2.702-.011-4.054.03-.288.01-.702.188-.832.41-1.693 2.894-3.346 5.811-5.004 8.724-.06.106-.073.236-.14.457h5.495c-.401.707-.719 1.3-1.074 1.87-.08.129-.289.255-.438.255-3.613.014-7.225.011-10.993.011.86-1.49 1.653-2.866 2.448-4.24 3.098-5.35 6.217-10.69 9.281-16.06.552-.966 1.256-1.367 2.39-1.35 3.078.043 6.159.015 9.4.015-.338.604-.593 1.135-.927 1.614-.097.14-.418.187-.639.188-1.46.016-2.92-.01-4.378.025-.27.007-.658.16-.783.364-1.048 1.725-2.047 3.477-3.06 5.222-.048.084-.077.18-.162.383 1.827.004 3.558.004 5.44.004Z" fill="#000"/><path d="m34.898 13.175 2.525-4.332c.08-.136.164-.268.243-.403.785-1.332 1.146-1.499 2.698-1.248.759.123.978.48.624 1.144-.64 1.196-1.315 2.376-1.99 3.557-.524.916-1.268 1.445-2.431 1.295-.492-.066-1-.013-1.67-.013Z" fill="#fff"/></g><defs><clipPath id="a"><path fill="#fff" transform="translate(.691)" d="M0 0h136v27H0z"/></clipPath></defs></svg>