<svg width="101" height="59" fill="none" xmlns="http://www.w3.org/2000/svg"><g opacity=".4" clip-path="url(#a)"><path d="M100.625 55.512c-.119.008-.259-.018-.362.03-2.312 1.145-3.602.985-4.784-1.31-1.145-2.224-1.778-4.718-2.59-7.108-.09-.267.059-.681.214-.96 2.255-4.04 3.522-8.425 4.402-12.928.746-3.812 1.357-7.655.774-11.558-.157-1.054-.3-2.473-1.494-2.608-.963-.108-2.095.513-3.006 1.057-.62.37-1.071 1.119-1.45 1.782-.576 1.004-1.123 2.045-1.512 3.133-2.532 7.046-2.66 14.28-1.391 21.561.253 1.458-.607 1.943-1.425 2.564-.84.64-1.803.837-2.753.169-1.571-1.106-2.697-5.537-2.01-7.355 1.171-3.1 2.35-6.205 3.31-9.372.728-2.398 1.02-4.908.37-7.407-.295-1.131-.868-2.1-2.14-2.34-1.285-.241-2.356.284-2.998 1.333-.642 1.049-1.226 2.206-1.502 3.395-1.233 5.353-1.238 10.776-.531 16.193.196 1.502-.465 2.473-1.383 3.406-.707.717-1.497.626-1.869-.285-.43-1.06-.89-2.227-.864-3.336.08-3.216.384-6.427.627-9.638.114-1.5.325-2.991.408-4.493.054-.987-.576-1.365-1.505-1.316-1.256.067-1.987.723-2.165 1.97-.425 2.99-.725 6.001-1.303 8.958-.41 2.093-1.11 4.141-1.868 6.138-.196.518-1.117 1.07-1.677 1.038-.416-.023-1.055-.93-1.115-1.494-.168-1.574-.25-3.193-.067-4.76.33-2.822.885-5.62 1.332-8.429.219-1.378-.818-2.32-2.093-1.769-.578.251-1.14.927-1.355 1.536-.35 1.002-.565 2.108-.567 3.17-.008 2.442-1.492 3.985-3.125 5.743-.09-.924-.104-1.654-.24-2.364-.364-1.898-.622-3.838-1.216-5.663-.609-1.875-1.891-2.54-3.744-1.971-1.36.417-2.779 1.043-3.837 1.965-3.292 2.872-4.926 6.656-5.4 10.98-.047.415-.421.79-.643 1.184-.503-.295-1.288-.482-1.45-.909a5.764 5.764 0 0 1-.338-2.652c.242-2.004.632-3.993 1.037-5.971.152-.746.24-1.394-.542-1.774-.836-.407-1.517-.104-1.987.64a4.47 4.47 0 0 0-.495 1.183c-.29 1.036-.439 2.123-.823 3.123-.862 2.237-1.732 4.482-2.82 6.611-.303.588-1.415 1.124-2.099 1.062-1.037-.096-1.181-1.207-1.23-2.144-.163-3.01.802-5.7 2.435-8.155 1.686-2.533 3.961-4.156 7.117-4.276.3-.01.591-.176.888-.269l.046-.329c-.47-.23-.918-.544-1.414-.68-2.296-.638-4.384-.042-6.162 1.418-4.038 3.315-6.113 7.684-6.567 12.868-.044.495-.018 1.173-.315 1.435-1.086.958-2.216 1.927-3.48 2.608-1.396.75-2.648.222-3.244-1.285-.42-1.062-.521-2.248-.772-3.38-.193-.872.114-1.377.924-1.843 2.547-1.463 4.947-3.139 6.707-5.565 1.184-1.634 1.819-3.424 1.452-5.467-.536-2.994-3.349-4.478-5.92-2.875-1.361.85-2.561 2.18-3.444 3.548-1.878 2.908-2.65 6.241-3.011 9.673-.047.435-.134 1.033-.426 1.248-.988.727-2.077 1.318-2.99 1.877-2.189-2.131-4.315-4.078-6.3-6.168-1.829-1.927-3.679-3.88-5.201-6.047-1.636-2.333-1.41-4.913.144-7.293 1.561-2.395 4.5-3.36 7.274-2.483 2.328.738 3.801 2.931 3.765 5.575-.026 1.759-1.035 3.056-1.961 4.41-.22.32-.25.77-.37 1.16.44.079.873.187 1.314.221.2.016.416-.096.61-.187 2.378-1.123 3.978-2.871 4.216-5.588.23-2.623-.919-4.615-3.12-5.956-3.07-1.872-6.394-2.147-9.824-1.272-6.463 1.65-8.922 7.42-5.4 13.094 1.393 2.242 3.274 4.2 5.075 6.155 2.054 2.232 4.266 4.32 6.459 6.518-1.734 1.313-3.347 2.396-4.794 3.67-1.54 1.36-3.092 2.77-4.335 4.392-1.67 2.173-.924 3.926 1.783 4.301 4.402.611 8.363-.6 11.7-3.553 1.462-1.294 2.182-3.048 1.705-5.024-.349-1.442-.957-2.82-1.49-4.342l1.926-1.256c.358 1.393.588 2.708 1.037 3.944.867 2.38 2.66 3.775 4.849 3.465 1.238-.176 2.459-.917 3.545-1.624.942-.611 1.683-1.53 2.51-2.313 1.575 1.79 3.296 2.344 5.123 1.378.993-.526 1.902-1.336 2.642-2.196.844-.982 1.456-2.16 2.036-3.05.519.882.862 2.221 1.677 2.643.834.433 2.13-.03 3.399-.11 1.055 1.605 2.09 2.14 3.986 1.426 1.123-.422 2.34-1.096 3.043-2.02 1.207-1.587 2.046-3.457 3.037-5.21.144-.257.258-.529.529-1.083.106.956.144 1.56.248 2.152.23 1.318-.083 2.375-1.066 3.374-1.11 1.13-2.152 2.386-2.955 3.745-1.014 1.725-1.958 3.545-2.56 5.444-.596 1.89.08 3.366 1.33 4.107 1.344.797 3.483.735 4.683-.529 1.091-1.152 2.044-2.563 2.637-4.034 1.195-2.965 1.357-6.166 1.086-9.307-.19-2.225 1.311-3.1 2.387-4.317.408 2.188.589 4.363 1.247 6.38.82 2.51 3.48 3.124 5.524 1.427.71-.587 1.244-1.41 1.77-2.188.359-.528.563-1.16.823-1.712.54 1.536.911 3.108 1.62 4.506 1.103 2.168 2.981 2.367 4.741.676.449-.432.854-.911 1.308-1.4.893 2.107 1.528 4.342 3.91 4.977 2.505.665 3.978-1.293 5.69-2.774.172.515.255.94.448 1.303 1.01 1.882 1.871 3.882 3.128 5.583 1.254 1.699 3.473 2.025 5.25 1.227 1.291-.582 1.915-1.628 1.632-2.778Z" fill="#fff"/><path d="m23.39 12.83.187.468c.95-.238 1.935-.383 2.843-.733 3.233-1.253 6.557-2.022 10.022-2.243 3.223-.204 7.878 2.432 9.468 5.498-1.685 1.248-3.489 1.942-5.643 1.445-.434-.1-.932.075-1.4.122.223.425.347.963.682 1.256 1.987 1.732 4.322 2.193 6.867 1.706 3.158-.603 6.014-1.978 8.84-3.462.952-.5 2.072-.684 3.114-1.01l.14.425c-.18.085-.4.132-.537.264-.242.233-.434.52-.648.785.328.142.671.435.983.404 3.032-.3 5.479.771 7.7 2.83 2.385 2.21 5.133 3.918 8.371 4.636.356.08.777-.12 1.166-.192-.113-.344-.144-.761-.358-1.026a743.43 743.43 0 0 0-5.91-7.173c-.964-1.163-2.26-1.701-3.725-1.797-2.271-.15-4.547-.21-6.815-.388-.596-.047-1.174-.379-1.757-.59-.932-.34-1.866-.988-2.79-.972-2.012.034-3.708-.572-5.259-1.761-.854-.655-1.708-1.308-2.536-1.994-1.886-1.567-3.935-2.434-6.415-1.6-.199.067-.426.041-.64.075-5.112.771-10.154 1.794-14.788 4.244-.41.207-.774.515-1.161.782Z" fill="#fff"/><path d="M50.668.008c-3.607-.122-7.488 1.282-10.91 3.998a6.847 6.847 0 0 0-1.386 1.505c-.154.23.019.68.042 1.03.304-.062.668-.038.9-.204.772-.544 1.481-1.176 2.238-1.738C48.19-.334 59.684.127 64.989 9.266c.743 1.28 1.092 2.786 1.67 4.167.126.303.462.515.699.769.183-.33.54-.671.519-.99a9.751 9.751 0 0 0-.444-2.268C65.319 4.335 59.008.026 50.668.008ZM33.06 17.397c.193 3.489 1.434 6.555 2.923 9.53.212.422 1.1.912 1.445.777.945-.368.292-1.085.003-1.585-1.27-2.206-2.018-4.586-2.072-7.108-.044-2.044.248-4.095.328-6.143.015-.414-.24-.84-.372-1.259-.317.28-.818.505-.924.852-.503 1.627-.898 3.29-1.331 4.936ZM67.972 23.004c-.433-.187-.76-.461-1.032-.412-.348.062-.771.308-.952.606a62.093 62.093 0 0 0-2.049 3.703c-.172.332-.188.744-.276 1.12.47-.024 1.205.131 1.363-.102.967-1.44 1.803-2.968 2.947-4.915Z" fill="#fff"/><path d="M100.624 55.512c.284 1.147-.34 2.196-1.636 2.776-1.775.798-3.997.471-5.25-1.228-1.257-1.701-2.12-3.703-3.128-5.583-.194-.362-.276-.785-.45-1.302-1.71 1.48-3.183 3.441-5.689 2.773-2.384-.634-3.016-2.87-3.91-4.977-.453.49-.859.968-1.308 1.4-1.757 1.694-3.638 1.492-4.74-.675-.71-1.399-1.08-2.97-1.62-4.506-.258.551-.465 1.183-.823 1.712-.527.776-1.063 1.6-1.77 2.188-2.044 1.696-4.704 1.082-5.525-1.427-.66-2.017-.839-4.195-1.246-6.381-1.076 1.217-2.58 2.093-2.387 4.317.27 3.141.106 6.342-1.087 9.307-.59 1.468-1.545 2.883-2.637 4.035-1.2 1.266-3.339 1.326-4.683.528-1.249-.74-1.925-2.217-1.329-4.107.599-1.898 1.543-3.719 2.56-5.444.802-1.359 1.845-2.615 2.954-3.744.983-1 1.296-2.056 1.066-3.374-.103-.59-.14-1.194-.248-2.152-.268.554-.384.828-.529 1.082-.988 1.753-1.83 3.623-3.037 5.21-.702.922-1.92 1.598-3.042 2.02-1.897.715-2.929.179-3.987-1.427-1.27.083-2.565.544-3.398.112-.816-.422-1.159-1.761-1.677-2.644-.58.89-1.192 2.072-2.036 3.05-.74.86-1.646 1.673-2.643 2.196-1.827.966-3.548.412-5.122-1.377-.825.78-1.569 1.701-2.51 2.312-1.087.707-2.307 1.448-3.546 1.624-2.185.31-3.979-1.085-4.848-3.465-.452-1.235-.679-2.55-1.038-3.944-.707.46-1.372.896-1.925 1.256.532 1.52 1.141 2.9 1.49 4.343.477 1.976-.243 3.729-1.706 5.024-3.337 2.952-7.298 4.164-11.7 3.553-2.707-.376-3.452-2.129-1.783-4.302 1.247-1.62 2.795-3.032 4.335-4.392 1.445-1.274 3.06-2.356 4.795-3.67-2.194-2.198-4.405-4.285-6.46-6.517-1.8-1.958-3.684-3.916-5.075-6.156-3.517-5.671-1.058-11.441 5.406-13.093 3.43-.876 6.753-.601 9.824 1.271 2.2 1.342 3.349 3.333 3.12 5.956-.238 2.717-1.838 4.468-4.217 5.589-.19.09-.41.202-.609.186-.441-.033-.877-.142-1.313-.22.118-.39.15-.839.369-1.16.929-1.352 1.935-2.652 1.96-4.41.037-2.642-1.436-4.835-3.772-5.573-2.771-.878-5.71.09-7.274 2.483-1.553 2.38-1.78 4.96-.144 7.293 1.52 2.167 3.37 4.12 5.202 6.047 1.981 2.087 4.11 4.037 6.298 6.168.916-.56 2.003-1.15 2.991-1.877.292-.215.38-.81.426-1.248.361-3.43 1.135-6.762 3.011-9.673.883-1.367 2.082-2.698 3.445-3.548 2.57-1.603 5.385-.121 5.92 2.875.366 2.043-.27 3.833-1.454 5.467-1.762 2.429-4.162 4.104-6.706 5.565-.81.466-1.115.97-.924 1.844.25 1.129.351 2.317.772 3.38.596 1.506 1.85 2.032 3.243 1.284 1.265-.681 2.395-1.65 3.481-2.608.297-.262.271-.94.315-1.435.454-5.184 2.529-9.553 6.567-12.868 1.778-1.46 3.866-2.059 6.162-1.419.496.137.945.448 1.414.681l-.046.329c-.297.093-.589.256-.888.27-3.156.121-5.432 1.742-7.117 4.275-1.633 2.455-2.598 5.146-2.435 8.155.049.935.193 2.048 1.23 2.144.684.062 1.799-.474 2.098-1.062 1.09-2.129 1.959-4.374 2.82-6.611.385-.997.535-2.085.824-3.123a4.51 4.51 0 0 1 .495-1.184c.47-.743 1.151-1.049 1.987-.64.785.381.694 1.031.542 1.775-.405 1.978-.797 3.967-1.037 5.971a5.73 5.73 0 0 0 .338 2.652c.162.427.947.614 1.45.909.222-.394.599-.77.642-1.184.475-4.327 2.108-8.11 5.401-10.98 1.058-.922 2.477-1.548 3.837-1.965 1.855-.57 3.135.093 3.744 1.97.594 1.826.852 3.766 1.216 5.664.134.707.15 1.437.24 2.364 1.636-1.758 3.12-3.299 3.124-5.743.003-1.062.217-2.168.568-3.17.214-.609.777-1.285 1.355-1.536 1.275-.551 2.312.391 2.093 1.769-.447 2.81-1.002 5.607-1.332 8.43-.183 1.566-.1 3.184.067 4.76.06.564.7 1.473 1.115 1.493.557.031 1.478-.52 1.677-1.038.759-1.997 1.458-4.045 1.868-6.138.578-2.957.878-5.971 1.303-8.957.178-1.248.909-1.904 2.165-1.971.93-.05 1.559.329 1.505 1.316-.08 1.499-.294 2.993-.408 4.493-.24 3.21-.547 6.422-.627 9.638-.029 1.109.43 2.277.864 3.336.372.911 1.162 1.002 1.869.285.916-.93 1.579-1.904 1.383-3.406-.707-5.417-.702-10.84.531-16.193.274-1.189.86-2.346 1.502-3.395s1.713-1.577 2.998-1.334c1.273.241 1.843 1.21 2.14 2.341.652 2.5.358 5.011-.37 7.407-.96 3.167-2.139 6.275-3.31 9.372-.687 1.815.438 6.246 2.01 7.355.95.668 1.912.47 2.753-.169.818-.621 1.678-1.106 1.425-2.564-1.27-7.284-1.14-14.515 1.39-21.561.39-1.088.937-2.129 1.512-3.134.38-.663.831-1.41 1.45-1.781.912-.544 2.047-1.163 3.007-1.057 1.195.135 1.337 1.554 1.494 2.608.583 3.903-.028 7.746-.774 11.558-.88 4.5-2.144 8.887-4.402 12.927-.155.28-.305.692-.215.96.81 2.391 1.443 4.885 2.591 7.11 1.185 2.294 2.472 2.455 4.784 1.31.109-.05.251-.02.369-.031Zm-8.112-12.027c2.843-7.336 4.487-14.561 4.038-22.452-3.135 2.093-5.659 16.721-4.038 22.452Zm-35.331-9.06c-.127-.358-.188-1.296-.612-1.51-.43-.218-1.24.227-1.845.481-.338.143-.632.45-.882.74-2.335 2.704-3.512 5.892-3.713 9.424-.034.57.382 1.477.828 1.67.423.182 1.352-.198 1.726-.626 2.472-2.82 3.948-6.122 4.498-10.18ZM14.914 48.066c-.753.564-1.489 1.015-2.108 1.592-1.375 1.28-2.745 2.572-4 3.965-.36.401-.634 1.419-.402 1.699.351.422 1.244.717 1.79.585 1.304-.313 2.682-.7 3.776-1.432 2.312-1.551 2.601-3.861.944-6.41Zm9.047-8.07c2.575-1.748 4.815-3.31 6.033-5.915.717-1.538.563-3.045-.297-3.54-.913-.525-2.2.047-3.186 1.505-1.551 2.292-2.142 4.905-2.55 7.95Zm58.45-1.567.476.096c.683-2.592 1.452-5.169 2.02-7.787.307-1.411.359-2.9.34-4.35-.004-.521-.552-1.036-.85-1.554-.375.422-.945.784-1.095 1.276-1.239 4.04-.97 8.189-.89 12.32Zm-24.314 7.596c-2.291 2.421-3.716 4.879-4.366 7.748-.173.77-.366 1.883.648 2.07.588.108 1.342-.614 1.997-1.005.162-.096.253-.345.34-.537 1.154-2.514 1.36-5.187 1.381-8.276Z" fill="#000"/><path d="M23.39 12.83c.388-.268.752-.573 1.162-.79 4.632-2.45 9.674-3.47 14.788-4.245.212-.031.439-.008.64-.075 2.48-.832 4.529.033 6.415 1.6.828.686 1.682 1.339 2.536 1.994 1.551 1.191 3.247 1.795 5.26 1.761.923-.015 1.857.632 2.789.971.583.213 1.158.544 1.757.59 2.268.18 4.544.239 6.815.39 1.465.095 2.76.634 3.726 1.796a785.416 785.416 0 0 1 5.909 7.174c.214.264.242.678.358 1.025-.39.07-.807.27-1.166.192-3.238-.718-5.986-2.424-8.37-4.636-2.222-2.058-4.669-3.128-7.7-2.83-.313.031-.656-.262-.984-.404.214-.264.405-.55.648-.785.137-.132.356-.178.537-.264l-.14-.425c-1.042.33-2.162.51-3.114 1.01-2.826 1.484-5.68 2.86-8.84 3.463-2.545.487-4.88.026-6.867-1.707-.335-.293-.46-.831-.681-1.256.467-.046.965-.223 1.398-.122 2.155.498 3.956-.194 5.644-1.445-1.59-3.063-6.245-5.7-9.468-5.497-3.462.22-6.789.989-10.022 2.242-.905.352-1.894.495-2.843.733-.062-.15-.124-.305-.186-.46Z" fill="#000"/><path d="M50.668.008c8.34.018 14.651 4.327 16.765 10.941.235.73.392 1.505.444 2.269.02.316-.333.657-.52.989-.24-.254-.572-.469-.698-.77-.578-1.38-.927-2.887-1.67-4.166C59.684.13 48.191-.331 41.552 4.604c-.76.565-1.469 1.194-2.238 1.738-.232.163-.596.14-.9.205-.023-.35-.196-.803-.041-1.031.379-.56.854-1.085 1.385-1.505C43.18 1.29 47.061-.114 50.668.008ZM33.06 17.397c.433-1.65.828-3.31 1.331-4.938.106-.347.607-.572.924-.852.132.42.387.844.372 1.258-.083 2.049-.372 4.1-.328 6.143.054 2.522.802 4.902 2.072 7.109.289.5.942 1.217-.003 1.584-.345.135-1.233-.354-1.445-.776-1.489-2.97-2.73-6.04-2.923-9.528ZM67.972 23.004c-1.143 1.947-1.979 3.475-2.946 4.915-.158.236-.896.078-1.363.101.088-.375.104-.787.276-1.119a62.916 62.916 0 0 1 2.05-3.703c.18-.298.603-.544.951-.606.271-.052.599.223 1.032.412Z" fill="#000"/><path d="M92.512 43.486c-1.62-5.731.903-20.36 4.038-22.453.449 7.89-1.195 15.116-4.038 22.453ZM57.182 34.424c-.55 4.06-2.026 7.363-4.495 10.18-.375.428-1.306.81-1.727.627-.446-.194-.862-1.1-.828-1.67.201-3.533 1.378-6.723 3.713-9.424.25-.29.542-.598.883-.74.603-.255 1.414-.7 1.845-.483.423.213.482 1.153.609 1.51ZM14.915 48.066c1.659 2.549 1.37 4.859-.945 6.41-1.094.735-2.472 1.119-3.775 1.432-.547.132-1.442-.163-1.79-.585-.233-.28.04-1.298.402-1.7 1.257-1.392 2.624-2.685 4-3.964.619-.577 1.352-1.028 2.108-1.593ZM23.961 39.997c.408-3.045.999-5.658 2.55-7.95.985-1.455 2.273-2.028 3.186-1.505.86.495 1.017 2.002.297 3.54-1.218 2.606-3.458 4.165-6.033 5.915ZM82.412 38.43c-.08-4.13-.348-8.279.888-12.321.15-.492.72-.855 1.094-1.277.299.518.846 1.034.851 1.554.018 1.45-.033 2.94-.34 4.35-.568 2.619-1.337 5.195-2.02 7.788-.158-.029-.316-.063-.473-.093ZM58.097 46.026c-.02 3.09-.227 5.762-1.38 8.276-.088.195-.179.44-.341.537-.656.39-1.41 1.113-1.997 1.004-1.015-.189-.821-1.302-.648-2.069.65-2.87 2.074-5.327 4.366-7.748Z" fill="#fff"/></g><defs><clipPath id="a"><path fill="#fff" transform="translate(.692)" d="M0 0h100v59H0z"/></clipPath></defs></svg>