<svg width="153" height="57" fill="none" xmlns="http://www.w3.org/2000/svg"><path d="M34.868 13.514c-3.166 3.398-6.396 6.533-9.242 9.99-4.689 5.697-7.36 12.234-6.938 19.787.437 7.802 3.929 14.614 13.668 13.613 2.086-.213 4.795-.805 5.928-2.245 1.512-1.928 1.763-4.853 2.572-7.404-1.588-.573-2.162.347-2.842 1.199-1.22 1.523-2.345 3.192-3.815 4.433-1.896 1.6-4.199 2.406-6.661 1.173-2.364-1.184-3.219-3.368-3.135-5.839.095-2.78.262-5.587.779-8.313 1.79-9.493 6.832-17.29 12.524-24.168 2.915.722 5.419 1.665 7.988 1.898 3.53.324 6.938-.462 9.522-3.208 2.295-2.44 1.52-5.468-1.69-6.32-3.565-.943-7.186-.843-10.477.936-1.353.73-2.193.455-3.378-.137C34.54 6.346 29.4 3.81 24.19 1.436 21.283.11 18.217-.435 14.979.389c-4.898 1.25-7.892 4.793-7.642 9.845.103 2.088 1.099 4.116 1.509 6.209.281 1.44.467 2.967.27 4.399-.091.657-1.216 1.642-1.855 1.63-.889-.015-2.074-.61-2.584-1.344-1.098-1.585-.243-3.12.741-4.525.377-.535.643-1.15 1.045-1.886-2.492-.21-4.255.534-5.122 2.108-.961 1.745-.813 3.555.175 5.239 1.744 2.967 5.894 4.024 8.99 2.36 2.793-1.501 4.298-5.492 2.52-8.535-.924-1.58-1.942-3.108-2.861-4.693-1.95-3.353-.183-7.099 3.693-7.309 1.98-.107 4.23.248 5.973 1.142 5.153 2.654 10.123 5.678 15.037 8.485ZM61.419 9.932c-.312.76-.551 1.451-.87 2.108-3.493 7.164-6.947 14.346-10.53 21.464-.97 1.925-1.09 3.803-.794 5.923 1.888-.203 3.674-.39 5.513-.588-1.645-3.3.992-5.312 1.915-8.264 1.604 2.211 2.007 4.354 2.3 6.511.558 4.097 1.903 7.763 6.08 9.352 5.92 2.253 11.65 1.432 16.966-1.898 1.049-.657 1.683-1.982 2.645-3.166-3.067-.836-4.051-.301-5.484 1.505-.881 1.115-2.272 2.306-3.58 2.509-5.95.928-10.567-.237-12.262-7.473-.767-3.28-1.295-6.538-4.313-8.798 9.018-2.57 12.726-6.687 11.438-12.64-3.203 1.944-6.353 3.853-9.564 5.8.84-1.771 1.683-3.578 2.55-5.372 1.071-2.223 2.188-4.418 3.233-6.652.498-1.058.327-2.295-.843-2.482-2.197-.348-4.42-.092-7.019 1.119l2.619 1.042ZM91.468 39.37c1.094-.165 1.835-.233 2.557-.394 1.235-.271 2.002-.622 2.34-2.299.875-4.318 3.398-7.828 6.54-10.867-1.622 4.456-5.107 8.282-4.32 13.674 2.257-.435 4.332-.84 6.41-1.241-.004-.199-.004-.397-.007-.6-.643-.27-1.281-.542-2.086-.885.452-1.085.873-2.124 1.318-3.155 1.178-2.726 2.455-5.41 3.496-8.187.312-.836.327-2.28-.179-2.78-.486-.48-1.907-.358-2.751-.045-1.265.465-2.39 1.328-3.503 1.982.004-2.387-.593-2.964-2.998-2.303-1.106.302-2.083 1.092-3.17 1.684-.037-.562-.075-1.096-.129-1.814-2.74.642-5.529.256-8.044 1.298.015.184.034.367.05.55l3.374.837c-1.357 2.661-2.561 5.258-3.979 7.736-1.239 2.169-1.907 4.376-1.463 6.961.817-.145 1.604-.405 2.39-.4 1.494.007 1.744-.7 2.166-2.101 1.33-4.426 3.644-8.378 6.965-11.681-1.234 4.758-5.107 8.561-4.977 14.03ZM130.394 24.324l.483.36c-.187.633-.304 1.297-.57 1.89-1.403 3.104-3.002 6.132-4.23 9.305-1.204 3.109-.957 3.296 2.235 3.135.756-.038 1.52-.007 2.272-.091.502-.058.988-.264 1.995-.55-1.056-.516-1.585-.771-2.299-1.119.258-.76.429-1.566.794-2.264 1.053-2.02 2.284-3.953 3.245-6.015.68-1.462 1.216-3.047 1.475-4.635.22-1.36-.51-2.452-2.109-2.12-1.855.382-3.663.97-5.449 1.459.163-1.16-.589-1.413-1.938-1.146-1.733.344-3.625.115-5.453 1.63 1.185.276 1.93.448 2.789.646-1.668 5.087-5.605 9.157-5.365 14.793 2.283-.37 4.373-.706 6.463-1.046.031-.156.065-.313.095-.47-1.892-.484-2.002-1.615-1.296-3.04 1.315-2.657 2.512-5.38 3.998-7.934.653-1.107 1.896-1.867 2.865-2.788Z" fill="#fff"/><path d="M75.094 35.032c.316 1.283.498 2.661 1.03 3.887.243.557 1.208 1.188 1.79 1.138 1.808-.157 4.385-3.548 4.411-5.69-.786.592-1.49 1.119-2.675 2.009V28.23l-.714-.34c-2.326 2.6-4.655 5.2-6.98 7.801a42.51 42.51 0 0 1-.419-.4c1.304-4.663 3.618-8.604 7.995-11.304 1.064 2.498 1.908 4.987 4.842 6.037-.156-2.737-.297-5.22-.441-7.79-1.577 0-3.135-.252-4.583.043-7.041 1.44-13.47 7.782-12.802 15.973.163 2.004.733 2.463 2.398 1.34 2.12-1.428 4.127-3.047 6.148-4.56ZM39.766 35.139c.311 1.271.505 2.608 1 3.814.22.539 1.044 1.157 1.603 1.165 1.93.027 4.67-3.364 4.507-5.526-.726.531-1.384 1.016-2.47 1.814l-.396-8.145c-1.379 1.36-2.625 2.605-3.887 3.834-1.212 1.184-2.436 2.352-3.655 3.525 1.082-4.93 3.393-8.894 7.736-11.548 1.083 2.532 1.885 5.11 4.856 6.045-.163-2.68-.319-5.193-.475-7.717-8.04-1.795-18.33 6.392-17.396 15.831.206 2.07.833 2.593 2.539 1.429 2.07-1.417 4.032-3.01 6.038-4.521ZM140.969 32.462c6.007-.543 12.197-5.629 11.692-9.41-3.785-.267-7.562-.42-10.947 1.792-3.835 2.505-6.267 5.82-5.978 10.676.126 2.139 1.368 3.83 3.158 4.22 2.2.477 10.229-3.223 11.631-5.652-.874.168-1.489.203-2.044.409-1.645.615-3.245 1.36-4.906 1.928-1.603.55-2.397.016-2.591-1.638-.084-.737-.015-1.493-.015-2.325ZM118.986 23.045c-.182-.19-.361-.382-.543-.573l-7.387.905c-.042.252-.08.5-.122.753.745.19 1.49.381 2.459.626-.239.569-.445 1.145-.718 1.688-1.349 2.646-2.744 5.27-4.066 7.93-.418.837-.806 1.738-.958 2.65-.323 1.899.407 2.613 2.303 2.346 1.425-.203 2.835-.524 4.244-.81.361-.073.707-.214 1.064-.325-2.724-1.172-2.853-1.42-1.766-3.631.725-1.474 1.66-2.845 2.355-4.334 1.11-2.38 2.098-4.815 3.135-7.225ZM117.269 14.19c-.794.74-1.589 1.535-2.444 2.264-1.257 1.07-1.01 2.055.122 2.967 1.866 1.5 4.024 1.314 6.255 1.176a11317.64 11317.64 0 0 1-3.933-6.407Z" fill="#fff"/><path d="M34.868 13.514c-4.913-2.807-9.88-5.831-15.04-8.481-1.744-.898-3.993-1.249-5.973-1.142-3.872.21-5.643 3.956-3.694 7.309.92 1.585 1.938 3.108 2.862 4.693 1.774 3.043.27 7.03-2.52 8.534-3.097 1.665-7.242.608-8.99-2.36-.988-1.68-1.14-3.494-.175-5.239.866-1.573 2.63-2.317 5.122-2.107-.403.736-.669 1.351-1.045 1.886-.984 1.409-1.839 2.94-.74 4.525.508.733 1.694 1.329 2.583 1.344.642.012 1.763-.974 1.854-1.63.198-1.429.012-2.96-.27-4.4-.41-2.092-1.402-4.12-1.508-6.209C7.087 5.183 10.081 1.639 14.98.39c3.237-.824 6.303-.282 9.21 1.043C29.4 3.81 34.541 6.346 39.668 8.905c1.182.592 2.026.867 3.379.137 3.29-1.775 6.915-1.878 10.476-.935 3.21.851 3.986 3.88 1.69 6.32-2.583 2.745-5.992 3.532-9.522 3.207-2.568-.237-5.073-1.176-7.987-1.898-5.692 6.881-10.731 14.675-12.525 24.168-.513 2.723-.68 5.533-.779 8.313-.087 2.47.768 4.655 3.135 5.839 2.463 1.233 4.765.428 6.662-1.172 1.47-1.242 2.595-2.91 3.815-4.434.68-.851 1.254-1.772 2.842-1.199-.81 2.55-1.06 5.476-2.572 7.404-1.133 1.444-3.842 2.032-5.928 2.246-9.74 1-13.232-5.812-13.669-13.614-.425-7.553 2.25-14.09 6.939-19.787 2.85-3.456 6.08-6.591 9.245-9.986ZM44 10.997c2.69 1.753 5.385 2.662 8.326 2.33.84-.096 1.588-1.008 2.375-1.543-.635-.607-1.163-1.485-1.915-1.772-2.915-1.103-5.765-.699-8.786.985ZM61.419 9.932l-2.615-1.039c2.596-1.21 4.822-1.466 7.019-1.118 1.17.183 1.337 1.42.843 2.482-1.048 2.234-2.162 4.433-3.233 6.652-.867 1.794-1.71 3.6-2.55 5.372 3.207-1.947 6.36-3.856 9.564-5.8 1.292 5.957-2.42 10.07-11.438 12.64 3.021 2.256 3.546 5.517 4.313 8.798 1.695 7.236 6.312 8.4 12.263 7.472 1.307-.206 2.698-1.397 3.58-2.508 1.432-1.807 2.416-2.337 5.482-1.505-.961 1.184-1.596 2.509-2.644 3.166-5.316 3.33-11.047 4.15-16.967 1.898-4.18-1.589-5.525-5.255-6.08-9.352-.292-2.162-.695-4.3-2.299-6.51-.923 2.95-3.564 4.963-1.915 8.263-1.839.194-3.621.385-5.514.588-.296-2.12-.174-4.002.795-5.923 3.583-7.118 7.037-14.3 10.53-21.464.315-.66.554-1.356.866-2.112Zm-2.957 16.852c4.328-.967 6.11-2.513 6.608-5.537-2.12 1.775-4.15 3.474-6.608 5.537ZM91.468 39.37c-.13-5.472 3.739-9.272 4.985-14.018-3.317 3.299-5.635 7.255-6.965 11.68-.422 1.402-.673 2.108-2.166 2.1-.787-.003-1.573.257-2.39.402-.445-2.59.224-4.796 1.463-6.962 1.417-2.478 2.622-5.078 3.978-7.736-1.463-.363-2.416-.6-3.374-.836-.015-.184-.034-.367-.05-.55 2.516-1.043 5.31-.657 8.045-1.299.05.715.088 1.253.13 1.814 1.086-.595 2.063-1.382 3.168-1.684 2.406-.656 3.002-.08 2.999 2.303 1.113-.653 2.234-1.516 3.503-1.982.847-.313 2.269-.435 2.751.046.502.5.49 1.947.179 2.78-1.038 2.776-2.318 5.464-3.496 8.187-.445 1.03-.867 2.07-1.319 3.154.806.34 1.444.615 2.086.886.004.198.004.397.008.6-2.079.4-4.157.801-6.41 1.24-.787-5.391 2.698-9.217 4.32-13.674-3.142 3.04-5.666 6.549-6.54 10.868-.338 1.672-1.105 2.024-2.34 2.299-.726.149-1.47.217-2.565.382ZM130.394 24.324c-.969.92-2.211 1.68-2.857 2.788-1.486 2.555-2.687 5.277-3.998 7.935-.703 1.424-.592 2.558 1.296 3.04-.03.156-.064.313-.095.47-2.09.339-4.183.675-6.463 1.045-.244-5.636 3.697-9.706 5.365-14.793l-2.789-.645c1.828-1.516 3.72-1.287 5.453-1.63 1.349-.268 2.101-.016 1.938 1.145 1.782-.485 3.594-1.073 5.449-1.459 1.6-.332 2.329.76 2.109 2.12-.259 1.588-.794 3.173-1.475 4.635-.961 2.062-2.192 3.99-3.245 6.015-.365.702-.532 1.504-.794 2.264.714.348 1.243.603 2.299 1.119-1.007.286-1.493.492-1.995.55-.752.084-1.516.053-2.272.091-3.192.16-3.443-.023-2.235-3.135 1.232-3.173 2.827-6.201 4.23-9.306.269-.595.383-1.26.57-1.89a22.715 22.715 0 0 1-.491-.359Z" fill="#000"/><path d="M75.094 35.032c-2.022 1.512-4.024 3.13-6.152 4.563-1.668 1.123-2.234.664-2.398-1.34-.669-8.195 5.76-14.538 12.802-15.974 1.448-.297 3.01-.042 4.583-.042l.44 7.79c-2.933-1.054-3.777-3.543-4.84-6.037-4.378 2.704-6.696 6.64-7.995 11.303.14.134.28.267.417.401 2.326-2.6 4.655-5.2 6.98-7.801.24.114.476.225.715.34v8.145c1.186-.89 1.885-1.417 2.675-2.009-.026 2.142-2.602 5.53-4.411 5.69-.582.05-1.547-.58-1.79-1.138-.532-1.23-.71-2.608-1.026-3.891ZM39.767 35.139c-2.007 1.512-3.964 3.104-6.042 4.52-1.706 1.165-2.333.642-2.539-1.427-.934-9.44 9.36-17.623 17.397-15.832.155 2.524.311 5.036.474 7.717-2.971-.936-3.777-3.513-4.856-6.045-4.343 2.654-6.653 6.618-7.736 11.548 1.22-1.176 2.443-2.345 3.655-3.525 1.262-1.23 2.508-2.474 3.887-3.834.126 2.631.251 5.167.396 8.145l2.47-1.813c.163 2.165-2.577 5.555-4.507 5.525-.559-.008-1.383-.626-1.604-1.165-.494-1.206-.684-2.543-.995-3.815ZM140.969 32.462c0 .832-.072 1.588.015 2.329.19 1.654.988 2.188 2.591 1.638 1.661-.569 3.257-1.313 4.906-1.928.555-.206 1.17-.24 2.044-.409-1.402 2.425-9.431 6.125-11.631 5.652-1.79-.386-3.029-2.081-3.158-4.22-.289-4.857 2.143-8.172 5.978-10.677 3.381-2.21 7.159-2.058 10.947-1.79.505 3.776-5.685 8.862-11.692 9.405Zm.786-2.7c2.565.011 4.948-2.1 5.579-4.983-2.676.84-4.507 2.413-5.579 4.983ZM118.987 23.045c-1.041 2.41-2.029 4.846-3.139 7.225-.695 1.485-1.63 2.856-2.356 4.334-1.086 2.21-.957 2.46 1.767 3.631-.353.111-.703.252-1.064.325-1.413.286-2.819.607-4.244.81-1.896.267-2.622-.451-2.303-2.345.156-.913.543-1.81.958-2.65 1.322-2.658 2.717-5.285 4.066-7.931.273-.539.478-1.115.718-1.688-.965-.248-1.714-.44-2.459-.627.042-.252.08-.5.122-.752l7.387-.905c.186.191.368.382.547.573ZM117.269 14.19c1.375 2.241 2.61 4.25 3.933 6.403-2.231.138-4.393.325-6.255-1.176-1.132-.912-1.379-1.898-.122-2.967.852-.721 1.65-1.52 2.444-2.26Z" fill="#000"/><path d="M44 10.997c3.02-1.684 5.87-2.088 8.785-.985.752.287 1.284 1.165 1.915 1.772-.79.538-1.54 1.451-2.375 1.543-2.945.328-5.636-.58-8.326-2.33ZM58.462 26.784c2.459-2.063 4.488-3.762 6.608-5.537-.498 3.024-2.28 4.57-6.608 5.537ZM141.756 29.762c1.075-2.57 2.903-4.147 5.578-4.983-.634 2.887-3.013 4.998-5.578 4.983Z" fill="#fff"/></svg>