<svg width="109" height="60" fill="none" xmlns="http://www.w3.org/2000/svg"><g opacity=".4" clip-path="url(#a)"><path d="M109 60H0V0h109v60ZM40.07 15.376c-.493.128-.932.312-1.381.345a98.168 98.168 0 0 1-4.524.249c-4.058.118-7.374 2.493-8.713 6.286-.572 1.618-.829 3.293-.854 5.002-.025 1.58.005 3.16-.016 4.74-.017 1.356-.946 2.336-2.174 2.34-1.335.004-2.276-.942-2.307-2.335-.015-.64-.003-1.28-.001-1.92.003-5.42.008-10.841.01-16.261 0-.369-.044-.69.514-.744 1.785-.173 3.575-.342 5.343-.628 1.705-.275 3.435-.545 5.065-1.08 2.571-.845 3.762-3.463 3.403-5.754-.944.187-1.888.38-2.832.562a127.095 127.095 0 0 1-21.026 2.246c-1.392.034-2.793-.012-4.175.125-1.973.194-3.52 1.15-4.15 3.084-.573 1.769-.317 3.48 1.168 4.78 1.561 1.367 3.406 1.562 5.362 1.073-.07-.058-.147-.072-.223-.093-1.178-.333-1.713-1.062-1.565-2.14.132-.965.804-1.471 1.994-1.51 1.755-.056 3.51-.117 5.264-.171.192-.006.385.016.59.025.017.18.039.297.039.414 0 6.8.01 13.601-.01 20.401-.007 2.636-.884 4.936-2.879 6.754-.28.254-.568.5-.875.772l.792.922c.065-.018.114-.018.142-.04 2.61-2.171 5.705-3.138 9.01-3.622 1.253-.184 2.515-.378 3.73-.715 1.308-.364 2.35-1.209 3.223-2.262 1.655.991 3.408 1.41 5.298 1.145 1.878-.264 3.47-1.1 4.748-2.487 1.543 1.042 3.177 1.505 4.978 1.351 1.805-.153 3.305-.945 4.584-2.193 1.083.797 2.184 1.411 3.511 1.61 1.326.2 2.579-.092 3.88-.43.087 2.139-.43 4.007-1.72 5.626-1.224 1.536-2.758 2.519-4.823 2.393-.528-.032-1.049-.174-1.657-.28.241.29.425.55.644.773 1.94 1.97 5.18 2.453 7.85 1.165 2.473-1.191 3.778-3.3 4.49-5.808.323-1.142.427-2.346.641-3.576 2.368.69 4.59.274 6.52-1.345 3.182 2.815 6.484 3.099 9.959.633.112.114.209.214.307.312.115.112.228.226.348.334 1.985 1.782 4.288 2.3 6.853 1.628 2.166-.568 3.636-2.002 4.67-3.908.874-1.61 1.268-3.358 1.362-5.175.047-.918.043-1.839.095-2.757.034-.602.36-1.053.892-1.341 1.305-.707 2.708.193 2.714 1.771.01 2.84-.001 5.68-.023 8.52-.012 1.565-.726 2.297-2.304 2.425-.097.009-.194.025-.317.042-.013.153-.031.288-.035.425-.006.216-.001.433-.001.703 3.558.383 6.966 1.183 10.192 2.637.51-1.088.51-1.088-.331-1.79-1.254-1.046-1.857-2.426-1.881-4.005-.052-3.5-.068-7.001-.015-10.5.033-2.099 2.296-3.372 4.198-2.442.353.173.682.395 1.044.607l2.337-3.834c-1.968-2.08-4.805-2.6-7.338-1.358-.298.146-.442.09-.666-.12-1.18-1.1-2.845-1.203-4.147-.23-.393.296-.697.71-1.034 1.08-.324.354-.602.758-.96 1.072-.93.822-2.105.907-3.108.17-.89-.654-1.69-1.423-2.56-2.104-2.413-1.896-5.047-2.438-7.907-1.097-2.072.97-3.283 2.708-4.069 4.777-.635 1.672-.797 3.418-.813 5.184-.012 1.3.03 2.602-.029 3.899-.062 1.34-1.271 2.131-2.569 1.747-.865-.256-1.36-1.007-1.36-2.094-.003-8.101-.002-16.201-.002-24.302v-.765h-6.952v1.168c1.334.162 1.692.567 1.693 1.884.002 4.96 0 9.92 0 14.881 0 2.02-.007 4.04.004 6.06.004.665-.142 1.268-.591 1.776-.673.762-1.761 1.048-2.696.714a2.417 2.417 0 0 1-1.62-2.306c-.009-4.04-.004-8.081-.004-12.122v-.709h-5.27V28.06c0 .26.003.522-.024.78-.104.987-.694 1.588-1.606 1.9-.809.278-1.709 0-2.298-.663-.46-.514-.573-1.13-.572-1.785.006-2.24.02-4.48.017-6.72-.001-1.18.048-2.365-.06-3.535-.163-1.735-1.912-3.05-3.707-2.894-1.8.156-3.172 1.675-3.105 3.435 1.086-.375 1.614-.109 1.618.858.011 3.101.01 6.2-.001 9.302-.003.867-.345 1.604-1.062 2.12-.859.617-1.801.698-2.741.217-.942-.482-1.404-1.3-1.406-2.346-.01-3.46-.007-6.92-.009-10.381.002-.978.002-1.955.002-2.972Zm-26.145 39.76c.026.063.05.126.075.19.69-.478 1.354-.198 2.023-.017.388.106.784.183 1.168.299.593.179.889-.239 1.206-.443l-2.66-.629c2.226-.795 2.999-1.762 2.757-3.542-.186-1.364-1.141-2.087-2.82-2.132-1.509-.04-2.592.764-2.86 2.124-.33 1.666.301 2.68 2.137 3.37l-1.026.78Zm79.37-3.73c.439.705.854 1.362 1.256 2.026.47.776.861.911 1.747.62l-1.822-2.537c.25-.17.42-.269.572-.393.45-.367.712-.823.544-1.416-.164-.574-.624-.747-1.169-.748-1.027-.003-2.053.006-3.08.018-.037 0-.074.073-.166.169.884.085.706.725.716 1.243.015.798.01 1.598-.025 2.395-.022.491.179 1.121-.613 1.27h2.335l.144-.161c-.844.047-.722-.468-.728-.902-.007-.48-.007-.96-.008-1.438-.002-.732 0-1.464 0-2.178.958-.137 1.417.098 1.5.7.103.752-.304 1.215-1.203 1.332Zm-28.682-.945c.045-.187.075-.373.134-.552.183-.55-.058-.863-.592-.895-.837-.05-1.696-.148-2.512-.018-1.252.2-2.016 1.193-2.05 2.396-.038 1.415.645 2.39 1.92 2.774 1.077.325 2.115.132 3.136-.219.119-.04.224-.25.25-.396.09-.475.14-.956.2-1.392h-2.103c.13.175.271.235.417.244.417.026.413.327.394.606-.018.29.132.65-.34.781-1.075.298-2.163-.155-2.496-1.21-.184-.584-.205-1.267-.108-1.875.135-.844.859-1.353 1.727-1.413 1.061-.072 1.397.131 1.858 1.114.009.025.068.026.165.055Zm5.887-1.494c.268.29.65.513.665.755a22.07 22.07 0 0 1-.034 2.872c-.055.762-.533 1.078-1.398 1.053-.855-.025-1.3-.389-1.332-1.146-.03-.719-.022-1.439-.014-2.157.004-.51-.14-1.102.609-1.271.01-.003-.006-.11-.007-.14h-2.355c.896.345.586 1.083.612 1.677.03.678 0 1.358.013 2.038.012.66.308 1.18.941 1.401.448.157.944.251 1.418.255 1.333.01 2.042-.718 2.07-2.043.01-.46-.029-.923.018-1.377.07-.671-.243-1.464.563-2.002-.579.026-1.156.055-1.769.085Zm-50.566-.043c-.038.056-.077.113-.114.17.873.083.752.672.756 1.194.006.82-.003 1.64.008 2.46.009.654.349 1.116.957 1.32.433.143.906.232 1.362.24 1.278.017 1.988-.655 2.07-1.917.041-.639.023-1.28.063-1.918.034-.543-.218-1.203.664-1.45l-.129-.15-1.837.116c.746.559.747.559.746 1.54 0 .62.011 1.24-.01 1.86-.029.861-.462 1.256-1.346 1.26-.964.007-1.422-.395-1.454-1.29-.015-.46-.043-.925.003-1.38.069-.7-.361-1.556.585-2.051-.775-.004-1.55-.004-2.324-.004Zm8.104 5.202c-.858-.239-.55-.745-.354-1.223.233-.572.733-.288 1.104-.301 1.087-.04 1.193.08 1.313 1.168l-.69.373h2.543c-.782-.457-.853-1.29-1.17-1.96-.461-.973-.846-1.98-1.292-2.961a.62.62 0 0 0-.425-.309c-.108-.012-.285.175-.354.311-.823 1.627-1.073 3.527-2.36 4.9.546.002 1.115.002 1.685.002Zm61.67.042c.03-.047.06-.092.089-.14-.87-.273-.915-1.082-1.21-1.714-.465-.994-.867-2.017-1.323-3.017-.076-.167-.288-.379-.435-.378-.142.003-.342.227-.415.396-.434 1.01-.819 2.038-1.257 3.045-.273.626-.359 1.38-1.258 1.732h1.838a3.766 3.766 0 0 1-.002-.116l-.514-.217c.157-1.096.223-1.169 1.004-1.173 1.462-.006 1.462-.006 1.636 1.172l-.545.321.064.089h2.328Zm11.366-3.893c.307-.564.284-1.087-.066-1.202-.81-.265-1.627-.292-2.414.08-.531.251-.845.877-.782 1.505.062.616.36 1.048.995 1.202.43.105.869.186 1.285.327.586.198.772.837.4 1.313-.377.48-.914.498-1.434.375-.458-.108-.878-.331-.858-.924.003-.089-.082-.18-.125-.27l-.145.011-.128 1.306c1.11.465 2.174.58 3.188-.134.611-.43.752-1.048.616-1.754-.128-.665-.61-.888-1.205-.989-.356-.06-.71-.135-1.066-.201-.459-.087-.713-.425-.602-.812.089-.306.4-.675.694-.774.767-.258 1.253.069 1.508.85.014.04.091.061.139.091ZM48.327 49.01h-4.899l.084 1.128.174.029.234-.712h1.385c0 1.104.006 2.158-.002 3.213-.005.561.21 1.24-.677 1.433h2.456l.085-.152c-.72-.012-.732-.456-.723-.94.014-.838.002-1.677.002-2.516v-1.03c.929-.069.929-.069 1.823.758l.058-1.21Zm6.622.045-.152-.146c-1.152.342-1.069 1.767-1.934 2.362-.35-.606-.679-1.222-1.05-1.812-.443-.707-1.233-.77-1.874-.181.206.138.472.233.605.421.495.703 1.043 1.394 1.375 2.173.21.493.11 1.137.057 1.703-.013.144-.38.254-.58.388-.018.012-.002.074-.002.13h2.493c-.284-.236-.659-.396-.676-.585-.072-.804-.192-1.63.346-2.368.488-.678.93-1.39 1.392-2.085Zm24.99.393c0 1.175-.013 2.328.006 3.48.009.528-.008 1-.685 1.169h2.465c-.247-.24-.596-.421-.604-.614-.048-1.332-.025-2.668-.025-4.05.415 0 .81-.09 1.123.03.252.097.402.45.67.776v-1.226H78.05l.1 1.128.133.105c.17-1.105.912-.834 1.656-.798Zm-44.73 4.297c0-1.228-.004-2.343.002-3.46.002-.47-.112-1.014.592-1.136.006 0 .001-.073.001-.118h-2.373l-.131.142c.936.069.763.693.775 1.21.014.659.024 1.319-.006 1.976-.03.623.178 1.3-.47 1.865 1.227 0 2.331.011 3.436-.012.16-.003.424-.141.453-.261.086-.354.078-.731.112-1.167-.56.115-.24.97-.922.894-.449-.049-.913.037-1.47.067Zm4.186-4.764-.1.155c.817.06.7.61.7 1.093.002.88-.01 1.76-.004 2.64.004.474.05.957-.59 1.083-.005.001.004.072.006.116h2.31c-.212-.215-.55-.397-.556-.59-.046-1.374-.024-2.75-.024-4.084l.654-.287-.054-.126h-2.342Zm34.51 4.931.139.143h2.295c-.205-.211-.543-.397-.549-.594-.047-1.37-.024-2.74-.024-4.073l.662-.28-.052-.122h-2.355c.777.26.609.873.611 1.4.004.817 0 1.634-.007 2.452-.005.477.137 1.035-.72 1.074Zm30.638-14.659c-.728-.001-1.265.557-1.256 1.306.01.727.535 1.264 1.238 1.264.665 0 1.263-.585 1.284-1.257a1.282 1.282 0 0 0-1.266-1.313Z" fill="#fff"/><path d="M40.07 15.376v2.972c.001 3.46-.002 6.92.008 10.381.004 1.045.464 1.864 1.407 2.346.94.481 1.882.4 2.74-.217.717-.516 1.06-1.253 1.063-2.12.01-3.101.012-6.2 0-9.302-.003-.967-.531-1.233-1.617-.858-.068-1.76 1.305-3.28 3.105-3.435 1.795-.156 3.544 1.159 3.706 2.894.109 1.17.06 2.357.06 3.535.003 2.24-.01 4.481-.017 6.72 0 .654.113 1.271.572 1.785.591.661 1.49.94 2.299.663.912-.312 1.502-.914 1.606-1.9.028-.258.023-.52.023-.78l.001-11.64v-.765h5.27v.71c0 4.04-.005 8.08.003 12.12a2.417 2.417 0 0 0 1.62 2.307c.936.334 2.023.048 2.697-.714.45-.509.594-1.111.59-1.776-.01-2.02-.003-4.04-.003-6.06V7.361c0-1.317-.359-1.722-1.693-1.884V4.309h6.952v.765c0 8.1-.002 16.2 0 24.302 0 1.087.496 1.838 1.362 2.094 1.297.383 2.508-.407 2.569-1.747.06-1.297.017-2.6.029-3.899.016-1.766.178-3.512.813-5.184.784-2.069 1.997-3.805 4.069-4.777 2.86-1.34 5.494-.8 7.907 1.097.869.682 1.67 1.452 2.56 2.104 1.002.737 2.176.652 3.108-.17.358-.316.636-.719.96-1.073.336-.368.639-.783 1.034-1.079 1.3-.973 2.966-.87 4.147.23.223.21.367.266.666.12 2.532-1.242 5.37-.72 7.338 1.358l-2.338 3.834c-.362-.212-.69-.434-1.044-.607-1.902-.93-4.165.343-4.197 2.442-.055 3.499-.038 7 .014 10.5.023 1.579.628 2.959 1.881 4.005.842.704.842.704.332 1.79-3.226-1.454-6.635-2.254-10.193-2.637 0-.27-.003-.486.002-.703.003-.136.021-.271.035-.425.123-.017.22-.033.317-.042 1.578-.128 2.291-.86 2.303-2.425.022-2.84.034-5.68.023-8.52-.006-1.578-1.408-2.478-2.714-1.771-.531.288-.857.74-.891 1.341-.052.918-.049 1.839-.096 2.757-.093 1.817-.488 3.565-1.362 5.175-1.035 1.905-2.504 3.34-4.669 3.908-2.565.672-4.87.154-6.854-1.628-.12-.106-.232-.222-.347-.334-.1-.098-.197-.198-.308-.312-3.475 2.466-6.776 2.181-9.959-.633-1.93 1.619-4.15 2.035-6.52 1.345-.212 1.232-.317 2.434-.641 3.576-.711 2.507-2.017 4.617-4.489 5.808-2.671 1.288-5.911.807-7.85-1.165-.22-.223-.405-.482-.644-.773.608.106 1.129.249 1.657.28 2.064.126 3.599-.858 4.822-2.393 1.29-1.619 1.807-3.486 1.721-5.625-1.302.337-2.555.63-3.88.43-1.328-.201-2.428-.816-3.511-1.611-1.28 1.248-2.78 2.04-4.584 2.193-1.801.153-3.435-.31-4.978-1.35-1.278 1.385-2.87 2.22-4.749 2.486-1.89.265-3.643-.154-5.297-1.145-.873 1.055-1.915 1.9-3.223 2.262-1.216.337-2.478.531-3.73.715-3.305.484-6.4 1.45-9.01 3.622-.029.022-.076.022-.143.04-.251-.294-.51-.596-.792-.922.308-.27.596-.516.876-.772 1.994-1.818 2.87-4.118 2.879-6.754.02-6.8.01-13.6.01-20.4 0-.118-.022-.235-.04-.415-.204-.01-.396-.031-.589-.025-1.755.055-3.51.115-5.265.172-1.189.038-1.861.544-1.993 1.51-.148 1.076.386 1.806 1.565 2.139.076.021.153.035.222.093-1.956.489-3.801.293-5.361-1.074-1.484-1.3-1.742-3.01-1.168-4.78.628-1.932 2.177-2.889 4.15-3.083 1.381-.137 2.781-.091 4.174-.125 7.072-.17 14.082-.908 21.026-2.249.945-.182 1.887-.374 2.833-.561.359 2.29-.832 4.909-3.403 5.754-1.631.535-3.36.805-5.065 1.08-1.77.285-3.558.454-5.343.627-.559.054-.514.376-.514.744-.002 5.42-.007 10.841-.01 16.261 0 .64-.014 1.28 0 1.92.032 1.395.973 2.34 2.308 2.336 1.228-.003 2.157-.983 2.174-2.34.02-1.58-.009-3.161.015-4.74.026-1.708.282-3.384.854-5.002 1.34-3.793 4.657-6.17 8.714-6.287a98.176 98.176 0 0 0 4.524-.248c.449-.033.887-.216 1.379-.343Z" fill="#000"/><path d="m79.597 26.18.097.009c0 .48-.027.961.004 1.437.08 1.2.19 2.398.892 3.437.944 1.397 2.608 1.479 3.632.14.318-.416.557-.938.682-1.447.505-2.065.475-4.166.152-6.247-.117-.763-.409-1.566-.843-2.202-.893-1.309-2.578-1.296-3.508-.01a4.51 4.51 0 0 0-.751 1.738c-.2 1.032-.246 2.094-.357 3.144ZM34.83 20.924c-2.03-.048-3.74 1.142-4.44 2.98-.663 1.744-.767 3.557-.557 5.372.09.77.37 1.571.77 2.238.879 1.463 2.934 1.43 3.786-.048.296-.51.45-1.17.458-1.764.038-2.497-.005-4.995-.018-7.494v-1.284ZM13.926 55.135l1.027-.779c-1.836-.69-2.467-1.702-2.138-3.37.269-1.359 1.352-2.164 2.86-2.123 1.678.044 2.634.767 2.82 2.132.242 1.78-.53 2.748-2.756 3.543l2.66.628c-.318.203-.615.622-1.207.443-.384-.116-.78-.193-1.168-.299-.668-.18-1.333-.46-2.022.017a7.568 7.568 0 0 1-.076-.192Zm3.48-3.494c-.103-.461-.156-.965-.333-1.421-.233-.6-.697-.953-1.399-.942-.718.01-1.272.282-1.506.97-.326.96-.305 1.932.168 2.848.305.59.838.842 1.502.803.656-.037 1.1-.387 1.3-.991.13-.391.175-.812.268-1.267ZM93.296 51.406c.899-.117 1.307-.58 1.203-1.332-.084-.602-.542-.837-1.501-.7v2.178c.001.479.001.959.008 1.438.007.434-.116.949.728.902l-.144.16h-2.335c.792-.148.591-.778.613-1.269.035-.797.04-1.597.026-2.395-.01-.518.168-1.158-.716-1.243.09-.096.128-.17.166-.17 1.027-.01 2.053-.02 3.08-.017.544 0 1.005.172 1.168.748.169.593-.094 1.048-.544 1.416-.15.124-.322.224-.571.393l1.821 2.538c-.885.29-1.277.155-1.746-.62-.402-.666-.819-1.322-1.256-2.027ZM64.612 50.461c-.097-.029-.156-.03-.166-.053-.461-.982-.796-1.185-1.857-1.113-.868.059-1.593.567-1.727 1.412-.097.609-.077 1.291.107 1.875.333 1.056 1.421 1.508 2.496 1.21.471-.13.323-.49.34-.78.018-.28.024-.58-.394-.607-.144-.01-.285-.068-.417-.243h2.103c-.06.435-.11.916-.199 1.392-.028.146-.133.355-.25.396-1.023.35-2.06.543-3.137.218-1.273-.384-1.956-1.36-1.919-2.773.033-1.204.796-2.197 2.05-2.397.816-.13 1.674-.032 2.511.018.536.033.777.345.593.896-.059.176-.09.362-.134.55ZM70.5 48.967l1.768-.086c-.805.537-.493 1.33-.563 2.001-.047.455-.008.918-.018 1.378-.027 1.325-.736 2.052-2.07 2.042a4.468 4.468 0 0 1-1.418-.254c-.632-.22-.929-.742-.941-1.402-.012-.679.016-1.36-.013-2.037-.027-.594.283-1.332-.612-1.678h2.354c.003.03.017.14.008.14-.749.17-.605.761-.61 1.271-.006.72-.015 1.44.015 2.158.033.757.477 1.122 1.332 1.146.865.025 1.342-.292 1.398-1.054.069-.954.09-1.917.034-2.871-.014-.241-.396-.463-.664-.754ZM19.934 48.924h2.324c-.944.495-.514 1.352-.585 2.052-.044.456-.018.92-.002 1.379.031.896.49 1.297 1.453 1.29.884-.004 1.318-.399 1.347-1.26.02-.62.009-1.24.01-1.86 0-.98 0-.98-.746-1.54l1.837-.116.128.15c-.881.247-.63.907-.663 1.45-.04.639-.022 1.28-.063 1.918-.083 1.263-.793 1.934-2.07 1.916a4.549 4.549 0 0 1-1.363-.24c-.607-.202-.947-.664-.957-1.318-.01-.82-.003-1.64-.008-2.46-.004-.522.117-1.111-.756-1.194.038-.053.075-.11.114-.167ZM28.038 54.126h-1.684c1.287-1.375 1.536-3.275 2.36-4.9.069-.138.246-.324.354-.312a.62.62 0 0 1 .425.309c.444.98.83 1.988 1.292 2.961.317.67.387 1.503 1.17 1.96h-2.542c.316-.172.501-.273.689-.373-.12-1.087-.227-1.209-1.313-1.168-.37.014-.87-.271-1.105.301-.196.477-.506.983.354 1.222Zm.73-3.904-.761 1.895h1.556l-.796-1.895ZM89.709 54.168h-2.326l-.064-.089.546-.321c-.175-1.176-.175-1.176-1.637-1.172-.781.004-.847.077-1.004 1.173l.513.217c.002.038.003.078.003.116H83.9c.9-.351.986-1.107 1.259-1.732.438-1.007.823-2.036 1.257-3.045.073-.169.271-.393.415-.396.147-.002.359.211.435.378.455 1 .856 2.022 1.323 3.017.296.632.341 1.441 1.21 1.715-.032.047-.061.092-.091.139Zm-3.142-3.774-.15.012c-.225.56-.45 1.12-.69 1.711h1.553l-.713-1.723ZM101.074 50.275c-.048-.03-.126-.05-.139-.09-.256-.782-.741-1.107-1.508-.85-.294.1-.606.468-.694.774-.111.388.143.727.602.812.356.066.71.141 1.066.201.596.101 1.078.324 1.205.99.136.706-.005 1.324-.617 1.753-1.014.713-2.077.6-3.187.134.043-.45.086-.878.128-1.306l.144-.01c.044.09.13.18.126.27-.02.592.4.815.858.923.52.123 1.056.106 1.434-.375.371-.475.187-1.115-.4-1.313-.418-.14-.856-.222-1.285-.327-.636-.154-.934-.586-.996-1.202-.064-.627.25-1.254.783-1.505.787-.372 1.603-.345 2.414-.08.35.113.371.636.066 1.201ZM48.327 49.01l-.06 1.211c-.893-.827-.893-.827-1.822-.757v1.03c.001.838.012 1.676-.002 2.515-.009.485.002.929.723.94l-.085.152h-2.456c.885-.192.672-.871.677-1.433.008-1.054.002-2.108.002-3.212h-1.386l-.233.711-.175-.029-.083-1.128h4.9ZM54.95 49.053c-.464.697-.905 1.408-1.397 2.084-.538.739-.418 1.565-.345 2.367.017.191.391.35.676.585H51.39c0-.054-.016-.118.002-.13.2-.133.567-.242.58-.388.054-.567.153-1.21-.056-1.702-.33-.78-.88-1.47-1.375-2.173-.132-.189-.4-.284-.605-.42.641-.59 1.432-.526 1.876.18.37.591.7 1.208 1.048 1.813.867-.594.784-2.019 1.934-2.362l.156.147ZM79.94 49.447c-.746-.036-1.487-.306-1.658.8l-.133-.106-.1-1.128h4.84v1.226c-.268-.326-.419-.68-.67-.776-.313-.12-.71-.029-1.123-.029 0 1.381-.023 2.716.025 4.049.007.193.356.373.603.614H79.26c.677-.169.695-.64.685-1.169-.02-1.153-.006-2.306-.006-3.48ZM35.208 53.744c.557-.03 1.021-.116 1.468-.067.68.076.362-.779.921-.894-.033.436-.026.811-.112 1.167-.03.12-.293.258-.453.261-1.105.023-2.21.012-3.436.012.648-.565.44-1.24.47-1.865.03-.657.02-1.317.006-1.976-.01-.517.161-1.14-.775-1.21l.132-.142H35.8c0 .045.006.117 0 .118-.704.122-.59.664-.593 1.137-.004 1.116 0 2.232 0 3.46ZM39.395 48.98h2.342l.054.126-.654.287c0 1.333-.022 2.71.024 4.084.006.193.345.375.556.59h-2.31c-.002-.045-.01-.116-.006-.116.64-.125.592-.609.59-1.083-.006-.88.005-1.76.005-2.64 0-.483.116-1.033-.7-1.093.033-.051.065-.103.1-.155ZM73.905 53.911c.856-.04.715-.598.719-1.073.007-.817.012-1.634.007-2.453-.003-.526.166-1.138-.612-1.399h2.356l.052.123c-.19.08-.382.16-.663.28 0 1.331-.021 2.703.025 4.072.007.197.345.383.548.594h-2.295l-.137-.144Z" fill="#000"/><path d="M79.597 26.18c.111-1.05.157-2.113.358-3.145a4.52 4.52 0 0 1 .751-1.739c.93-1.285 2.615-1.297 3.509.011.434.636.725 1.439.843 2.202.32 2.081.352 4.182-.153 6.247a4.004 4.004 0 0 1-.682 1.448c-1.023 1.338-2.686 1.256-3.632-.14-.703-1.039-.811-2.239-.891-3.438-.032-.477-.005-.958-.005-1.437l-.098-.01ZM34.83 20.924c0 .454-.002.87 0 1.284.011 2.499.054 4.997.017 7.494-.008.594-.162 1.253-.458 1.764-.852 1.478-2.907 1.51-3.785.048a5.775 5.775 0 0 1-.77-2.238c-.211-1.815-.107-3.628.556-5.372.702-1.838 2.41-3.028 4.44-2.98ZM17.406 51.64c-.093.456-.138.877-.269 1.27-.2.603-.644.952-1.3.99-.664.039-1.197-.212-1.502-.803-.474-.916-.495-1.887-.168-2.848.233-.69.788-.96 1.506-.97.7-.01 1.164.342 1.399.942.178.455.231.959.334 1.42ZM28.768 50.222l.794 1.895h-1.556l.762-1.895ZM86.567 50.394l.713 1.723h-1.552l.689-1.711.15-.012ZM104.505 39.41a1.088 1.088 0 0 1 1.128 1.076c.014.658-.465 1.168-1.098 1.17-.6 0-1.093-.492-1.109-1.108a1.127 1.127 0 0 1 1.079-1.138Zm.428 1.726.134-.07-.839-1.16v1.207l.079-.005.168-.615c.195.272.326.458.458.643Z" fill="#fff"/></g><defs><clipPath id="a"><path fill="#fff" d="M0 0h109v60H0z"/></clipPath></defs></svg>